<svg xmlns="http://www.w3.org/2000/svg" xmlns:xlink="http://www.w3.org/1999/xlink" width="139.003" height="139" viewBox="0 0 139.003 139">
  <defs>
    <linearGradient id="linear-gradient" x1="0.177" y1="0.047" x2="0.91" y2="0.862" gradientUnits="objectBoundingBox">
      <stop offset="0" stop-color="#ff8331" stop-opacity="0.251"/>
      <stop offset="1" stop-color="#fff" stop-opacity="0"/>
    </linearGradient>
    <linearGradient id="linear-gradient-2" x1="0.49" y1="0.826" x2="1.312" y2="0.826" gradientUnits="objectBoundingBox">
      <stop offset="0" stop-color="#6a6f79"/>
      <stop offset="1" stop-color="#dadbde"/>
    </linearGradient>
    <linearGradient id="linear-gradient-3" x1="0.034" y1="0.514" x2="0.925" y2="0.514" gradientUnits="objectBoundingBox">
      <stop offset="0" stop-color="#c5c9cc"/>
      <stop offset="1" stop-color="#fff"/>
    </linearGradient>
    <linearGradient id="linear-gradient-4" x1="0.162" y1="-0.343" x2="0.337" y2="0.673" xlink:href="#linear-gradient-2"/>
  </defs>
  <g id="그룹_4142" data-name="그룹 4142" transform="translate(-999 -1241)">
    <circle id="타원_11" data-name="타원 11" cx="69.5" cy="69.5" r="69.5" transform="translate(999 1241)" fill="url(#linear-gradient)"/>
    <g id="_x39_" transform="translate(1023 1281.863)">
      <g id="그룹_4048" data-name="그룹 4048">
        <circle id="타원_299" data-name="타원 299" cx="8.003" cy="8.003" r="8.003" transform="translate(61.563 26.073)" fill="url(#linear-gradient-2)"/>
        <g id="그룹_4047" data-name="그룹 4047" transform="translate(76.13)">
          <path id="패스_1376" data-name="패스 1376" d="M837.8,2795.631l6.539-9.815.642,3.25,7.386-6.667-7.849,9.712-.591-1.683Z" transform="translate(-837.8 -2782.4)" fill="#ff8331"/>
          <path id="패스_1377" data-name="패스 1377" d="M900.6,2850.93l13.283-13.668.013,4.612,13.54-8.774-13.424,14.2-1.22-3.726Z" transform="translate(-892.533 -2826.587)" fill="#ff8331"/>
          <path id="패스_1378" data-name="패스 1378" d="M911.3,3034.54l12.191-3.34-1.773,2.7,11.047-.321-13.732,3.16.951-2.351Z" transform="translate(-901.858 -2999.238)" fill="#ff8331"/>
          <path id="패스_1379" data-name="패스 1379" d="M894.2,3137.4l18.023.372-1.991,3.032,15.6,4.072-19.475-.6,1.657-3.262Z" transform="translate(-886.955 -3091.796)" fill="#ff8331"/>
        </g>
        <path id="패스_1380" data-name="패스 1380" d="M422.878,3247.8l3.623,7.258a2.734,2.734,0,0,1-1.542,3.8l-2.454.874L415.8,3250.3Z" transform="translate(-393.88 -3188.109)" fill="#ff8331"/>
        <path id="패스_1381" data-name="패스 1381" d="M305.717,2840.6l19.6,55.148c-9.557-5.267-27.825-3.044-43.227.309-10.367,2.261-19.436,5.036-23.663,6.41a2.736,2.736,0,0,1-3.43-1.7l-5.794-16.314a2.753,2.753,0,0,1,1.58-3.481,214.658,214.658,0,0,0,22.275-10.367C286.975,2863.081,302.236,2852.419,305.717,2840.6Z" transform="translate(-248.548 -2833.124)" fill="url(#linear-gradient-3)"/>
        <path id="패스_1382" data-name="패스 1382" d="M699.678,2875.049h0a2.027,2.027,0,0,0,1.233-2.595L680.7,2815.61a2.027,2.027,0,0,0-2.595-1.233h0a2.027,2.027,0,0,0-1.233,2.595l20.207,56.844A2.027,2.027,0,0,0,699.678,2875.049Z" transform="translate(-621.313 -2810.163)" fill="#ff8331"/>
        <path id="패스_1383" data-name="패스 1383" d="M248.627,3205.8l-2.544.9a1.373,1.373,0,0,0-.835,1.759l2.389,6.719a1.373,1.373,0,0,0,1.76.834l2.544-.9Z" transform="translate(-245.168 -3151.494)" fill="#ff8331"/>
        <path id="패스_1384" data-name="패스 1384" d="M329.6,3262.266l17.779,28.57a7.087,7.087,0,0,0,8.363,2.928h0a7.068,7.068,0,0,0,3.777-10.148L344.424,3257Z" transform="translate(-318.754 -3196.169)" fill="url(#linear-gradient-4)"/>
        <path id="패스_1385" data-name="패스 1385" d="M273.049,3074.2l9.044,25.448c-10.367,2.261-19.436,5.035-23.663,6.41a2.737,2.737,0,0,1-3.43-1.7l-5.794-16.315a2.753,2.753,0,0,1,1.58-3.481A216.065,216.065,0,0,0,273.049,3074.2Z" transform="translate(-248.548 -3036.793)" fill="#5c6374"/>
      </g>
    </g>
  </g>
</svg>
