<svg id="_7meerkat_logo_white" data-name="7meerkat logo white" xmlns="http://www.w3.org/2000/svg" width="111" height="50" viewBox="0 0 111 50">
  <path id="패스_1" data-name="패스 1" d="M34.322,43.506a6.107,6.107,0,0,1-2.593-2.391,7.048,7.048,0,0,1-.905-3.644,7.153,7.153,0,0,1,.877-3.588,6.365,6.365,0,0,1,2.4-2.419,7,7,0,0,1,3.53-.872h.088V0H0V50H37.723V44.334A8.459,8.459,0,0,1,34.322,43.506Zm-5.989-1.222a2.092,2.092,0,0,1-.525,1.531,2.006,2.006,0,0,1-1.5.538,1.822,1.822,0,0,1-2.053-2.069V36.319a3.463,3.463,0,0,0-.418-1.922,1.6,1.6,0,0,0-1.421-.606A2.206,2.206,0,0,0,20.6,34.6a3.552,3.552,0,0,0-.651,2.284v5.4a1.811,1.811,0,0,1-2.028,2.069,1.876,1.876,0,0,1-2.053-2.069V36.319a3.34,3.34,0,0,0-.434-1.922,1.611,1.611,0,0,0-1.405-.606,2.206,2.206,0,0,0-1.811.806,3.552,3.552,0,0,0-.651,2.284v5.4a1.811,1.811,0,0,1-2.028,2.069,1.835,1.835,0,0,1-2.053-2.069V32.744a1.787,1.787,0,0,1,2-2.044,1.79,1.79,0,0,1,2,2.044v.069a4.223,4.223,0,0,1,1.635-1.6,4.915,4.915,0,0,1,2.421-.578,4.421,4.421,0,0,1,2.392.625,3.838,3.838,0,0,1,1.5,1.875,4.443,4.443,0,0,1,1.8-1.841,5.227,5.227,0,0,1,2.609-.659,4.111,4.111,0,0,1,3.379,1.356,6.521,6.521,0,0,1,1.107,4.181Z" fill="#ff8331"/>
  <path id="패스_2" data-name="패스 2" d="M111.417,107.318a3.659,3.659,0,0,0-.987,2.2h3.008v-2.971A2.829,2.829,0,0,0,111.417,107.318Z" transform="translate(-75.97 -73.263)" fill="#ff8331"/>
  <path id="패스_3" data-name="패스 3" d="M111.577,124.952a3.672,3.672,0,0,0,1.861.679V122.67H110.43A3.308,3.308,0,0,0,111.577,124.952Z" transform="translate(-75.97 -84.35)" fill="#ff8331"/>
  <path id="패스_4" data-name="패스 4" d="M152.8,111.738a8.868,8.868,0,0,1-4.04-.852,6.111,6.111,0,0,1-2.6-2.4,7.155,7.155,0,0,1-.905-3.665,7.23,7.23,0,0,1,.877-3.609,6.416,6.416,0,0,1,2.408-2.433,6.957,6.957,0,0,1,3.527-.877,5.981,5.981,0,0,1,4.6,1.823,6.992,6.992,0,0,1,1.713,4.935q0,1.028-1.257,1.028h-7.972a3.284,3.284,0,0,0,1.151,2.282,4.155,4.155,0,0,0,2.581.717,8.555,8.555,0,0,0,1.474-.148,5.819,5.819,0,0,0,1.572-.528,1.588,1.588,0,0,1,1.323-.148,1.3,1.3,0,0,1,.745.77,1.6,1.6,0,0,1,0,1.122,1.782,1.782,0,0,1-.905.943,8,8,0,0,1-2.1.77A10,10,0,0,1,152.8,111.738Zm-.566-11.138a2.867,2.867,0,0,0-2.1.783,3.659,3.659,0,0,0-.987,2.2h5.841Q154.827,100.6,152.231,100.6Z" transform="translate(-99.96 -67.419)" fill="#ff8331"/>
  <path id="패스_5" data-name="패스 5" d="M196.649,111.826a1.85,1.85,0,0,1-2.109-2.081v-9.6a2,2,0,1,1,4,0v.487a4.191,4.191,0,0,1,4.027-2.6,1.207,1.207,0,0,1,1.041.34A1.949,1.949,0,0,1,204,99.66a1.858,1.858,0,0,1-.34,1.323,1.886,1.886,0,0,1-1.311.6l-.629.053q-3.027.3-3.027,3.081v5.03A1.821,1.821,0,0,1,196.649,111.826Z" transform="translate(-133.861 -67.507)" fill="#ff8331"/>
  <path id="패스_6" data-name="패스 6" d="M232.023,99.3a1.829,1.829,0,0,1-2.053-2.081V81.831a2.048,2.048,0,1,1,4.1,0v9.431h.057l3.92-4.354A6.155,6.155,0,0,1,239.1,85.9a2.329,2.329,0,0,1,1.352-.34,1.864,1.864,0,0,1,1.3.418,1.367,1.367,0,0,1,.462,1.056,1.827,1.827,0,0,1-.541,1.229l-3.458,3.867,3.92,4.514a1.726,1.726,0,0,1,.446,1.257,1.446,1.446,0,0,1-.556,1,1.918,1.918,0,0,1-1.242.393,2.628,2.628,0,0,1-1.474-.352,5.275,5.275,0,0,1-1.122-1.081l-4.087-4.543h-.025v3.895A1.823,1.823,0,0,1,232.023,99.3Z" transform="translate(-158.257 -54.978)" fill="#ff8331"/>
  <path id="패스_7" data-name="패스 7" d="M280.706,111.776a5.769,5.769,0,0,1-2.622-.569,4.609,4.609,0,0,1-1.8-1.54,3.807,3.807,0,0,1-.663-2.2,3.37,3.37,0,0,1,.745-2.27,4.415,4.415,0,0,1,2.461-1.232,22.47,22.47,0,0,1,4.514-.365h.975v-.459a2.241,2.241,0,0,0-.541-1.691,2.671,2.671,0,0,0-1.839-.5,8.147,8.147,0,0,0-1.6.176,10.868,10.868,0,0,0-1.864.582,1.408,1.408,0,0,1-1.257.041,1.361,1.361,0,0,1-.676-.864,1.7,1.7,0,0,1,.094-1.176,1.616,1.616,0,0,1,1.012-.864,13.256,13.256,0,0,1,2.4-.692,11.632,11.632,0,0,1,2.065-.2,6.592,6.592,0,0,1,4.6,1.393,5.558,5.558,0,0,1,1.515,4.282v6q0,2.081-1.886,2.081t-1.921-2.081v-.163a3.4,3.4,0,0,1-1.364,1.676A4.2,4.2,0,0,1,280.706,111.776Zm.921-2.732a2.612,2.612,0,0,0,1.918-.783,2.744,2.744,0,0,0,.786-2.028v-.541h-.943a8.4,8.4,0,0,0-2.949.365,1.283,1.283,0,0,0-.864,1.257,1.619,1.619,0,0,0,.528,1.257,2.175,2.175,0,0,0,1.525.472Z" transform="translate(-189.773 -67.456)" fill="#ff8331"/>
  <path id="패스_8" data-name="패스 8" d="M327.994,103.308q-5.592,0-5.6-5.435v-5.08h-1.135q-1.594,0-1.594-1.515t1.594-1.54H322.4V87.681a1.83,1.83,0,0,1,2.056-2.081,1.8,1.8,0,0,1,2.028,2.081v2.056h2.568a1.377,1.377,0,0,1,1.572,1.54c0,1.028-.525,1.515-1.572,1.515h-2.568v4.92a2.439,2.439,0,0,0,.525,1.7,2.219,2.219,0,0,0,1.691.566,3.238,3.238,0,0,0,.758-.082,5.03,5.03,0,0,1,.648-.107.726.726,0,0,1,.629.242,1.754,1.754,0,0,1,.242,1.11,2.789,2.789,0,0,1-.214,1.147,1.339,1.339,0,0,1-.758.692,5.029,5.029,0,0,1-.962.229A6.937,6.937,0,0,1,327.994,103.308Z" transform="translate(-219.975 -58.989)" fill="#ff8331"/>
  <path id="패스_9" data-name="패스 9" d="M124,101.045c.968.384,1.493,1.3,1.572,2.773H124v2.109h3.681q1.257,0,1.257-1.028a6.947,6.947,0,0,0-1.7-4.935A5.63,5.63,0,0,0,124,98.25Z" transform="translate(-85.31 -67.58)" fill="#ff8331"/>
  <path id="패스_10" data-name="패스 10" d="M127.858,129.412a1.588,1.588,0,0,0-1.323.148,5.838,5.838,0,0,1-1.572.528,9.266,9.266,0,0,1-.943.123v3.059a10.894,10.894,0,0,0,1.588-.236,7.975,7.975,0,0,0,2.094-.77,1.782,1.782,0,0,0,.905-.943,1.6,1.6,0,0,0,0-1.122A1.3,1.3,0,0,0,127.858,129.412Z" transform="translate(-85.323 -88.972)" fill="#ff8331"/>
</svg>
