<svg id="_7meerkat_logo_white" data-name="7meerkat logo white" xmlns="http://www.w3.org/2000/svg" width="60" height="27.027" viewBox="0 0 60 27.027">
  <path id="패스_1" data-name="패스 1" d="M18.433,23.517a3.288,3.288,0,0,1-1.393-1.292,3.829,3.829,0,0,1-.486-1.97,3.887,3.887,0,0,1,.471-1.939,3.43,3.43,0,0,1,1.292-1.307,3.738,3.738,0,0,1,1.9-.471h.047V0H0V27.027H20.26V23.965A4.52,4.52,0,0,1,18.433,23.517Zm-3.216-.66a1.135,1.135,0,0,1-.282.828,1.073,1.073,0,0,1-.807.291.982.982,0,0,1-1.1-1.118V19.632a1.882,1.882,0,0,0-.225-1.039.859.859,0,0,0-.763-.328,1.182,1.182,0,0,0-.972.436,1.929,1.929,0,0,0-.349,1.235v2.921a.976.976,0,0,1-1.089,1.118,1.094,1.094,0,0,1-.812-.291,1.119,1.119,0,0,1-.29-.828V19.632a1.815,1.815,0,0,0-.233-1.039.863.863,0,0,0-.755-.328,1.182,1.182,0,0,0-.972.436,1.929,1.929,0,0,0-.349,1.235v2.921a.976.976,0,0,1-1.089,1.118.989.989,0,0,1-1.1-1.118V17.7a.963.963,0,0,1,1.074-1.1.965.965,0,0,1,1.075,1.1v.037a2.275,2.275,0,0,1,.878-.865,2.626,2.626,0,0,1,1.3-.313,2.363,2.363,0,0,1,1.285.338,2.072,2.072,0,0,1,.805,1.014,2.4,2.4,0,0,1,.966-.995,2.793,2.793,0,0,1,1.4-.356,2.2,2.2,0,0,1,1.815.733,3.541,3.541,0,0,1,.594,2.26Z" fill="#ff8331"/>
  <path id="패스_2" data-name="패스 2" d="M110.96,106.961a1.965,1.965,0,0,0-.53,1.182h1.616v-1.6A1.52,1.52,0,0,0,110.96,106.961Z" transform="translate(-91.799 -88.548)" fill="#ff8331"/>
  <path id="패스_3" data-name="패스 3" d="M111.046,123.9a1.972,1.972,0,0,0,1,.365v-1.59H110.43A1.777,1.777,0,0,0,111.046,123.9Z" transform="translate(-91.799 -101.948)" fill="#ff8331"/>
  <path id="패스_4" data-name="패스 4" d="M149.3,105.33a4.763,4.763,0,0,1-2.17-.458,3.282,3.282,0,0,1-1.395-1.292,3.843,3.843,0,0,1-.486-1.969,3.883,3.883,0,0,1,.471-1.938,3.446,3.446,0,0,1,1.293-1.307,3.736,3.736,0,0,1,1.894-.471,3.212,3.212,0,0,1,2.468.979,3.755,3.755,0,0,1,.92,2.651q0,.552-.675.552h-4.282a1.764,1.764,0,0,0,.618,1.226,2.231,2.231,0,0,0,1.386.385,4.594,4.594,0,0,0,.792-.079,3.126,3.126,0,0,0,.844-.284.853.853,0,0,1,.711-.079.7.7,0,0,1,.4.414.861.861,0,0,1,0,.6.957.957,0,0,1-.486.507,4.3,4.3,0,0,1-1.126.414A5.372,5.372,0,0,1,149.3,105.33Zm-.3-5.982a1.54,1.54,0,0,0-1.126.42,1.965,1.965,0,0,0-.53,1.182h3.137Q150.4,99.348,149,99.348Z" transform="translate(-120.749 -81.354)" fill="#ff8331"/>
  <path id="패스_5" data-name="패스 5" d="M195.673,105.437a.994.994,0,0,1-1.133-1.118V99.165a1.075,1.075,0,1,1,2.149,0v.262a2.251,2.251,0,0,1,2.163-1.395.648.648,0,0,1,.559.182,1.047,1.047,0,0,1,.211.689,1,1,0,0,1-.182.711,1.013,1.013,0,0,1-.7.321l-.338.029q-1.626.159-1.626,1.655v2.7A.978.978,0,0,1,195.673,105.437Z" transform="translate(-161.721 -81.461)" fill="#ff8331"/>
  <path id="패스_6" data-name="패스 6" d="M231.072,90.248a.982.982,0,0,1-1.1-1.118V80.868a1.1,1.1,0,1,1,2.2,0v5.065h.03l2.105-2.338a3.3,3.3,0,0,1,.566-.54,1.251,1.251,0,0,1,.726-.182,1,1,0,0,1,.7.225.734.734,0,0,1,.248.567.981.981,0,0,1-.29.66L234.393,86.4l2.105,2.424a.927.927,0,0,1,.24.675.777.777,0,0,1-.3.537,1.03,1.03,0,0,1-.667.211,1.411,1.411,0,0,1-.792-.189,2.833,2.833,0,0,1-.6-.581l-2.195-2.44h-.014v2.092A.979.979,0,0,1,231.072,90.248Z" transform="translate(-191.175 -66.272)" fill="#ff8331"/>
  <path id="패스_7" data-name="패스 7" d="M278.351,105.375a3.1,3.1,0,0,1-1.408-.306,2.475,2.475,0,0,1-.966-.827,2.045,2.045,0,0,1-.356-1.182,1.81,1.81,0,0,1,.4-1.219,2.371,2.371,0,0,1,1.322-.662,12.068,12.068,0,0,1,2.424-.2h.523v-.247a1.2,1.2,0,0,0-.29-.908,1.435,1.435,0,0,0-.988-.268,4.375,4.375,0,0,0-.858.095,5.836,5.836,0,0,0-1,.312.756.756,0,0,1-.675.022.731.731,0,0,1-.363-.464.913.913,0,0,1,.051-.631.868.868,0,0,1,.544-.464A7.119,7.119,0,0,1,278,98.058a6.247,6.247,0,0,1,1.109-.108,3.54,3.54,0,0,1,2.468.748,2.985,2.985,0,0,1,.814,2.3v3.225q0,1.118-1.013,1.118t-1.032-1.118v-.088a1.825,1.825,0,0,1-.733.9A2.256,2.256,0,0,1,278.351,105.375Zm.495-1.467a1.4,1.4,0,0,0,1.03-.42,1.474,1.474,0,0,0,.422-1.089v-.29h-.507a4.51,4.51,0,0,0-1.584.2.689.689,0,0,0-.464.675.869.869,0,0,0,.284.675,1.168,1.168,0,0,0,.819.253Z" transform="translate(-229.128 -81.399)" fill="#ff8331"/>
  <path id="패스_8" data-name="패스 8" d="M324.141,95.111q-3,0-3.005-2.919V89.463h-.609q-.856,0-.856-.814t.856-.827h.609v-1.1a.983.983,0,0,1,1.1-1.118.967.967,0,0,1,1.089,1.118v1.1h1.379a.739.739,0,0,1,.844.827c0,.552-.282.814-.844.814h-1.379v2.642a1.31,1.31,0,0,0,.282.915,1.192,1.192,0,0,0,.908.3,1.739,1.739,0,0,0,.407-.044,2.7,2.7,0,0,1,.348-.057.39.39,0,0,1,.338.13.942.942,0,0,1,.13.6,1.5,1.5,0,0,1-.115.616.719.719,0,0,1-.407.371,2.7,2.7,0,0,1-.517.123A3.725,3.725,0,0,1,324.141,95.111Z" transform="translate(-265.742 -71.134)" fill="#ff8331"/>
  <path id="패스_9" data-name="패스 9" d="M124,99.751a1.505,1.505,0,0,1,.844,1.489H124v1.133h1.977q.675,0,.675-.552a3.731,3.731,0,0,0-.915-2.651A3.024,3.024,0,0,0,124,98.25Z" transform="translate(-103.08 -81.652)" fill="#ff8331"/>
  <path id="패스_10" data-name="패스 10" d="M126.081,129.375a.853.853,0,0,0-.711.079,3.135,3.135,0,0,1-.844.284,4.974,4.974,0,0,1-.507.066v1.643a5.85,5.85,0,0,0,.853-.127,4.284,4.284,0,0,0,1.124-.414.957.957,0,0,0,.486-.507.861.861,0,0,0,0-.6A.7.7,0,0,0,126.081,129.375Z" transform="translate(-103.097 -107.482)" fill="#ff8331"/>
</svg>
