<svg xmlns="http://www.w3.org/2000/svg" width="1194" height="1089" viewBox="0 0 1194 1089">
  <g id="그룹_4155" data-name="그룹 4155" transform="translate(-363 -1115)">
    <line id="선_59" data-name="선 59" y1="162" x2="495" transform="translate(465 1217)" fill="none" stroke="#ff8331" stroke-width="1"/>
    <path id="패스_1541" data-name="패스 1541" d="M495,162,0,0" transform="translate(960 1217)" fill="none" stroke="#ff8331" stroke-width="1"/>
    <line id="선_61" data-name="선 61" y1="162" x2="248" transform="translate(712 1217)" fill="none" stroke="#ff8331" stroke-width="1"/>
    <line id="선_62" data-name="선 62" x1="248" y1="162" transform="translate(960 1217)" fill="none" stroke="#ff8331" stroke-width="1"/>
    <line id="선_63" data-name="선 63" y2="162" transform="translate(960.5 1217.5)" fill="none" stroke="#ff8331" stroke-width="1"/>
    <g id="타원_349" data-name="타원 349" transform="translate(1353 1379)" fill="none" stroke="#ff8331" stroke-width="1">
      <circle cx="102" cy="102" r="102" stroke="none"/>
      <circle cx="102" cy="102" r="101.5" fill="none"/>
    </g>
    <g id="사각형_1823" data-name="사각형 1823" transform="translate(1454.824 1379) rotate(45)" fill="#fff" stroke="#ff8331" stroke-width="1">
      <rect width="144" height="144" stroke="none"/>
      <rect x="0.5" y="0.5" width="143" height="143" fill="none"/>
    </g>
    <text id="Channel" transform="translate(1455 1491)" fill="#ff8331" font-size="24" font-family="SpoqaHanSansNeo-Bold, Spoqa Han Sans Neo" font-weight="700"><tspan x="-48.792" y="0">Channel</tspan></text>
    <line id="선_55" data-name="선 55" y2="604" transform="translate(465 1584)" fill="none" stroke="#ff8331" stroke-width="1" stroke-dasharray="4 4"/>
    <g id="사각형_1812" data-name="사각형 1812" transform="translate(363 1632)" fill="#fff" stroke="#ff8331" stroke-width="1" stroke-dasharray="4 4">
      <rect width="204" height="572" rx="102" stroke="none"/>
      <rect x="0.5" y="0.5" width="203" height="571" rx="101.5" fill="none"/>
    </g>
    <g id="타원_354" data-name="타원 354" transform="translate(383 1652)" fill="none" stroke="#ff8331" stroke-width="1">
      <circle cx="82" cy="82" r="82" stroke="none"/>
      <circle cx="82" cy="82" r="81.5" fill="none"/>
    </g>
    <g id="타원_367" data-name="타원 367" transform="translate(383 1836)" fill="none" stroke="#ff8331" stroke-width="1">
      <circle cx="82" cy="82" r="82" stroke="none"/>
      <circle cx="82" cy="82" r="81.5" fill="none"/>
    </g>
    <g id="타원_368" data-name="타원 368" transform="translate(383 2020)" fill="none" stroke="#ff8331" stroke-width="1">
      <circle cx="82" cy="82" r="82" stroke="none"/>
      <circle cx="82" cy="82" r="81.5" fill="none"/>
    </g>
    <text id="PR" transform="translate(465 1742)" fill="#ff8331" font-size="16" font-family="SpoqaHanSansNeo-Light, Spoqa Han Sans Neo" font-weight="300"><tspan x="-9.76" y="0">PR</tspan></text>
    <text id="UX_UI" data-name="UX &amp; UI" transform="translate(465 1926)" fill="#ff8331" font-size="16" font-family="SpoqaHanSansNeo-Light, Spoqa Han Sans Neo" font-weight="300"><tspan x="-26.408" y="0">UX &amp; UI</tspan></text>
    <text id="Advisor" transform="translate(465 2110)" fill="#ff8331" font-size="16" font-family="SpoqaHanSansNeo-Light, Spoqa Han Sans Neo" font-weight="300"><tspan x="-26.744" y="0">Advisor</tspan></text>
    <g id="타원_345" data-name="타원 345" transform="translate(363 1379)" fill="none" stroke="#ff8331" stroke-width="1">
      <circle cx="102" cy="102" r="102" stroke="none"/>
      <circle cx="102" cy="102" r="101.5" fill="none"/>
    </g>
    <g id="사각형_1819" data-name="사각형 1819" transform="translate(464.823 1379) rotate(45)" fill="#fff" stroke="#ff8331" stroke-width="1">
      <rect width="144" height="144" stroke="none"/>
      <rect x="0.5" y="0.5" width="143" height="143" fill="none"/>
    </g>
    <text id="Plan" transform="translate(465 1491)" fill="#ff8331" font-size="24" font-family="SpoqaHanSansNeo-Bold, Spoqa Han Sans Neo" font-weight="700"><tspan x="-26.568" y="0">Plan</tspan></text>
    <line id="선_56" data-name="선 56" y2="420" transform="translate(714 1584)" fill="none" stroke="#ff8331" stroke-width="1" stroke-dasharray="4 4"/>
    <g id="사각형_1816" data-name="사각형 1816" transform="translate(611 1632)" fill="#fff" stroke="#ff8331" stroke-width="1" stroke-dasharray="4 4">
      <rect width="204" height="388" rx="102" stroke="none"/>
      <rect x="0.5" y="0.5" width="203" height="387" rx="101.5" fill="none"/>
    </g>
    <g id="타원_370" data-name="타원 370" transform="translate(631 1836)" fill="none" stroke="#ff8331" stroke-width="1">
      <circle cx="82" cy="82" r="82" stroke="none"/>
      <circle cx="82" cy="82" r="81.5" fill="none"/>
    </g>
    <g id="타원_369" data-name="타원 369" transform="translate(631 1652)" fill="none" stroke="#ff8331" stroke-width="1">
      <circle cx="82" cy="82" r="82" stroke="none"/>
      <circle cx="82" cy="82" r="81.5" fill="none"/>
    </g>
    <text id="Management_Finance_Division" data-name="Management
&amp;
Finance Division" transform="translate(713 1717)" fill="#ff8331" font-size="16" font-family="SpoqaHanSansNeo-Light, Spoqa Han Sans Neo" font-weight="300"><tspan x="-47.432" y="0">Management</tspan><tspan x="-5.16" y="24">&amp;</tspan><tspan x="-58.648" y="48">Finance Division</tspan></text>
    <text id="Legal_General_Affairs_Team" data-name="Legal &amp; General
Affairs Team" transform="translate(713 1913)" fill="#ff8331" font-size="16" font-family="SpoqaHanSansNeo-Light, Spoqa Han Sans Neo" font-weight="300"><tspan x="-55.504" y="0">Legal &amp; General</tspan><tspan x="-43.8" y="24">Affairs Team</tspan></text>
    <g id="타원_346" data-name="타원 346" transform="translate(612 1379)" fill="none" stroke="#ff8331" stroke-width="1">
      <circle cx="102" cy="102" r="102" stroke="none"/>
      <circle cx="102" cy="102" r="101.5" fill="none"/>
    </g>
    <g id="사각형_1820" data-name="사각형 1820" transform="translate(713.823 1379) rotate(45)" fill="#fff" stroke="#ff8331" stroke-width="1">
      <rect width="144" height="144" stroke="none"/>
      <rect x="0.5" y="0.5" width="143" height="143" fill="none"/>
    </g>
    <text id="Support" transform="translate(714 1491)" fill="#ff8331" font-size="24" font-family="SpoqaHanSansNeo-Bold, Spoqa Han Sans Neo" font-weight="700"><tspan x="-48.372" y="0">Support</tspan></text>
    <line id="선_58" data-name="선 58" y2="420" transform="translate(1208 1584)" fill="none" stroke="#ff8331" stroke-width="1" stroke-dasharray="4 4"/>
    <line id="선_64" data-name="선 64" y2="420" transform="translate(1455 1584)" fill="none" stroke="#ff8331" stroke-width="1" stroke-dasharray="4 4"/>
    <g id="사각형_1818" data-name="사각형 1818" transform="translate(1106 1632)" fill="#fff" stroke="#ff8331" stroke-width="1" stroke-dasharray="4 4">
      <rect width="204" height="388" rx="102" stroke="none"/>
      <rect x="0.5" y="0.5" width="203" height="387" rx="101.5" fill="none"/>
    </g>
    <g id="사각형_1827" data-name="사각형 1827" transform="translate(1353 1632)" fill="#fff" stroke="#ff8331" stroke-width="1" stroke-dasharray="4 4">
      <rect width="204" height="388" rx="102" stroke="none"/>
      <rect x="0.5" y="0.5" width="203" height="387" rx="101.5" fill="none"/>
    </g>
    <g id="타원_375" data-name="타원 375" transform="translate(1126 1652)" fill="none" stroke="#ff8331" stroke-width="1">
      <circle cx="82" cy="82" r="82" stroke="none"/>
      <circle cx="82" cy="82" r="81.5" fill="none"/>
    </g>
    <g id="타원_377" data-name="타원 377" transform="translate(1373 1652)" fill="none" stroke="#ff8331" stroke-width="1">
      <circle cx="82" cy="82" r="82" stroke="none"/>
      <circle cx="82" cy="82" r="81.5" fill="none"/>
    </g>
    <g id="타원_376" data-name="타원 376" transform="translate(1126 1836)" fill="none" stroke="#ff8331" stroke-width="1">
      <circle cx="82" cy="82" r="82" stroke="none"/>
      <circle cx="82" cy="82" r="81.5" fill="none"/>
    </g>
    <g id="타원_378" data-name="타원 378" transform="translate(1373 1836)" fill="none" stroke="#ff8331" stroke-width="1">
      <circle cx="82" cy="82" r="82" stroke="none"/>
      <circle cx="82" cy="82" r="81.5" fill="none"/>
    </g>
    <text id="H_W" data-name="H/W" transform="translate(1208 1741)" fill="#ff8331" font-size="16" font-family="SpoqaHanSansNeo-Light, Spoqa Han Sans Neo" font-weight="300"><tspan x="-15.688" y="0">H/W</tspan></text>
    <text id="car_maintenance" data-name="car 
maintenance" transform="translate(1455 1729)" fill="#ff8331" font-size="16" font-family="SpoqaHanSansNeo-Light, Spoqa Han Sans Neo" font-weight="300"><tspan x="-12.928" y="0">car </tspan><tspan x="-47.416" y="24">maintenance</tspan></text>
    <text id="Local_Commerce" data-name="Local Commerce" transform="translate(1455 1925)" fill="#ff8331" font-size="16" font-family="SpoqaHanSansNeo-Light, Spoqa Han Sans Neo" font-weight="300"><tspan x="-60.392" y="0">Local Commerce</tspan></text>
    <text id="S_W" data-name="S/W" transform="translate(1208 1925)" fill="#ff8331" font-size="16" font-family="SpoqaHanSansNeo-Light, Spoqa Han Sans Neo" font-weight="300"><tspan x="-14.648" y="0">S/W</tspan></text>
    <g id="타원_348" data-name="타원 348" transform="translate(1106 1379)" fill="none" stroke="#ff8331" stroke-width="1">
      <circle cx="102" cy="102" r="102" stroke="none"/>
      <circle cx="102" cy="102" r="101.5" fill="none"/>
    </g>
    <g id="사각형_1822" data-name="사각형 1822" transform="translate(1207.822 1379) rotate(45)" fill="#fff" stroke="#ff8331" stroke-width="1">
      <rect width="144" height="144" stroke="none"/>
      <rect x="0.5" y="0.5" width="143" height="143" fill="none"/>
    </g>
    <text id="R_D" data-name="R&amp;D" transform="translate(1208 1491)" fill="#ff8331" font-size="24" font-family="SpoqaHanSansNeo-Bold, Spoqa Han Sans Neo" font-weight="700"><tspan x="-25.296" y="0">R&amp;D</tspan></text>
    <line id="선_57" data-name="선 57" y2="420" transform="translate(960.5 1584)" fill="none" stroke="#ff8331" stroke-width="1" stroke-dasharray="4 4"/>
    <g id="사각형_1817" data-name="사각형 1817" transform="translate(858 1632)" fill="#fff" stroke="#ff8331" stroke-width="1" stroke-dasharray="4 4">
      <rect width="204" height="388" rx="102" stroke="none"/>
      <rect x="0.5" y="0.5" width="203" height="387" rx="101.5" fill="none"/>
    </g>
    <g id="타원_372" data-name="타원 372" transform="translate(878 1652)" fill="none" stroke="#ff8331" stroke-width="1">
      <circle cx="82" cy="82" r="82" stroke="none"/>
      <circle cx="82" cy="82" r="81.5" fill="none"/>
    </g>
    <g id="타원_373" data-name="타원 373" transform="translate(878 1836)" fill="none" stroke="#ff8331" stroke-width="1">
      <circle cx="82" cy="82" r="82" stroke="none"/>
      <circle cx="82" cy="82" r="81.5" fill="none"/>
    </g>
    <text id="Sales" transform="translate(960 1741)" fill="#ff8331" font-size="16" font-family="SpoqaHanSansNeo-Light, Spoqa Han Sans Neo" font-weight="300"><tspan x="-18.992" y="0">Sales</tspan></text>
    <text id="Manufacturing_installation" data-name="Manufacturing 
&amp; 
installation" transform="translate(960 1901)" fill="#ff8331" font-size="16" font-family="SpoqaHanSansNeo-Light, Spoqa Han Sans Neo" font-weight="300"><tspan x="-53.952" y="0">Manufacturing </tspan><tspan x="-6.936" y="24">&amp; </tspan><tspan x="-39.992" y="48">installation</tspan></text>
    <g id="타원_347" data-name="타원 347" transform="translate(858 1379)" fill="none" stroke="#ff8331" stroke-width="1">
      <circle cx="102" cy="102" r="102" stroke="none"/>
      <circle cx="102" cy="102" r="101.5" fill="none"/>
    </g>
    <g id="사각형_1821" data-name="사각형 1821" transform="translate(959.822 1379) rotate(45)" fill="#fff" stroke="#ff8331" stroke-width="1">
      <rect width="144" height="144" stroke="none"/>
      <rect x="0.5" y="0.5" width="143" height="143" fill="none"/>
    </g>
    <text id="SCM" transform="translate(960 1491)" fill="#ff8331" font-size="24" font-family="SpoqaHanSansNeo-Bold, Spoqa Han Sans Neo" font-weight="700"><tspan x="-25.62" y="0">SCM</tspan></text>
    <g id="그룹_4154" data-name="그룹 4154" transform="translate(0 -34)">
      <circle id="타원_343" data-name="타원 343" cx="102" cy="102" r="102" transform="translate(858 1149)" fill="#ff8331"/>
      <text id="CEO" transform="translate(960 1266)" fill="#fff" font-size="36" font-family="SpoqaHanSansNeo-Bold, Spoqa Han Sans Neo" font-weight="700"><tspan x="-36.756" y="0">CEO</tspan></text>
    </g>
  </g>
</svg>
