<svg xmlns="http://www.w3.org/2000/svg" width="130" height="29" viewBox="0 0 130 29">
  <g id="YouTube_Logo_2017" transform="translate(-1.817 -0.4)">
    <path id="패스_667" data-name="패스 667" d="M42.41,4.941a5.211,5.211,0,0,0-3.674-3.665C35.515.4,22.551.4,22.551.4S9.586.427,6.365,1.3A5.212,5.212,0,0,0,2.691,4.968c-.974,5.71-1.352,14.41.027,19.891a5.212,5.212,0,0,0,3.674,3.665c3.221.876,16.186.876,16.186.876s12.965,0,16.186-.876a5.211,5.211,0,0,0,3.674-3.665C43.465,19.141,43.781,10.446,42.41,4.941Z" transform="translate(0)" fill="#fff"/>
    <path id="패스_668" data-name="패스 668" d="M64.2,44.059l10.755-6.229L64.2,31.6Z" transform="translate(-45.776 -22.929)" fill="#353c49"/>
    <g id="그룹_32" data-name="그룹 32" transform="translate(47.399 1.545)">
      <path id="패스_669" data-name="패스 669" d="M187.615,32.49a4.5,4.5,0,0,1-1.757-2.575,16.883,16.883,0,0,1-.506-4.646V22.641a15.107,15.107,0,0,1,.586-4.7,4.581,4.581,0,0,1,1.864-2.575,6.134,6.134,0,0,1,3.3-.823,5.571,5.571,0,0,1,3.221.823,4.8,4.8,0,0,1,1.784,2.575,15.87,15.87,0,0,1,.559,4.672v2.628a15.676,15.676,0,0,1-.559,4.646,4.665,4.665,0,0,1-1.784,2.575,6.1,6.1,0,0,1-3.328.823A5.959,5.959,0,0,1,187.615,32.49Zm4.606-2.841a8.455,8.455,0,0,0,.346-2.894V21.1a8.206,8.206,0,0,0-.346-2.841,1.228,1.228,0,0,0-1.2-.9,1.2,1.2,0,0,0-1.171.9,8.307,8.307,0,0,0-.346,2.841v5.654a9.365,9.365,0,0,0,.319,2.894,1.191,1.191,0,0,0,1.2.876A1.234,1.234,0,0,0,192.221,29.65Zm58.355-4.327v.929l.106,2.628a2.638,2.638,0,0,0,.426,1.274,1.464,1.464,0,0,0,2.263-.319,6.1,6.1,0,0,0,.373-2.363l3.541.212a4.314,4.314,0,0,1,.027.637,4.729,4.729,0,0,1-1.384,3.743,5.645,5.645,0,0,1-3.887,1.248c-2.023,0-3.434-.637-4.233-1.885a11.106,11.106,0,0,1-1.225-5.84V22.376c.091-4.513.887-7.818,5.564-7.831a5.709,5.709,0,0,1,3.221.77,4.168,4.168,0,0,1,1.6,2.389,16.712,16.712,0,0,1,.453,4.486V25.3h-6.842Zm.532-7.645a2.522,2.522,0,0,0-.426,1.248c-.08.584-.106,2.655-.106,2.655v1.3h2.982v-1.3c0,1.3-.027-2.044-.106-2.655a2.44,2.44,0,0,0-.426-1.274,1.224,1.224,0,0,0-.958-.372A1.244,1.244,0,0,0,251.108,17.677Zm-73.449,7.3L173,8.2h4.073s1.9,8.415,2.556,12.371h.106c.74-4.2,2.609-12.371,2.609-12.371h4.073l-4.712,16.751v8.044h-4.02V24.978Z" transform="translate(-173 -7.268)" fill="#fff"/>
      <path id="A" d="M281.048,33.4V51.583h-3.195l-.346-2.236h-.08a4.216,4.216,0,0,1-3.913,2.529c-3.133-.008-3.482-2.662-3.514-4.9V33.4h4.1V46.737a3.959,3.959,0,0,0,.266,1.73c.378.74,1.358.551,1.89.186a2.13,2.13,0,0,0,.719-.825V33.4Z" transform="translate(-244.177 -25.831)" fill="#fff"/>
      <path id="패스_670" data-name="패스 670" d="M319.84,8.921h-4.073V30.453h-3.993V8.921H307.7V5.629h12.113V8.921Zm23.4,6.292a4.674,4.674,0,0,0-1.2-2.5,3.266,3.266,0,0,0-2.289-.77,3.761,3.761,0,0,0-2.1.637,4.375,4.375,0,0,0-1.517,1.673h-.027V4.7h-3.94V30.426h3.381l.426-1.726h.08a3.721,3.721,0,0,0,1.411,1.46,4.338,4.338,0,0,0,2.1.531,3.244,3.244,0,0,0,3.061-1.912,13.89,13.89,0,0,0,.985-5.947V19.966A24.257,24.257,0,0,0,343.24,15.214Zm-3.754,7.407a23.227,23.227,0,0,1-.16,3.106,3.241,3.241,0,0,1-.559,1.593,1.289,1.289,0,0,1-1.038.478,1.8,1.8,0,0,1-1.624-.956v-10.3a2.46,2.46,0,0,1,.719-1.221,1.308,1.308,0,0,1,2.05,0,3.792,3.792,0,0,1,.479,1.646c.08.77.133,1.858.133,3.292Z" transform="translate(-271.841 -4.7)" fill="#fff"/>
    </g>
    <path id="패스_671" data-name="패스 671" d="M281.048,33.4V51.583h-3.195l-.346-2.236h-.08a4.216,4.216,0,0,1-3.913,2.529c-3.133-.008-3.482-2.662-3.514-4.9V33.4h4.1V46.737a3.959,3.959,0,0,0,.266,1.73c.378.74,1.358.551,1.89.186a2.13,2.13,0,0,0,.719-.825V33.4Z" transform="translate(-175.776 -24.286)" fill="#fff"/>
  </g>
</svg>
