<svg xmlns="http://www.w3.org/2000/svg" xmlns:xlink="http://www.w3.org/1999/xlink" width="13" height="15" viewBox="0 0 13 15">
  <defs>
    <filter id="다각형_11" x="0" y="0" width="13" height="15" filterUnits="userSpaceOnUse">
      <feOffset dx="1" dy="1" input="SourceAlpha"/>
      <feGaussianBlur result="blur"/>
      <feFlood flood-opacity="0.161"/>
      <feComposite operator="in" in2="blur"/>
      <feComposite in="SourceGraphic"/>
    </filter>
  </defs>
  <g transform="matrix(1, 0, 0, 1, 0, 0)" filter="url(#다각형_11)">
    <path id="다각형_11-2" data-name="다각형 11" d="M9.351,0a2,2,0,0,1,1.728.992l2.333,4a2,2,0,0,1,0,2.015l-2.333,4A2,2,0,0,1,9.351,12h-4.7a2,2,0,0,1-1.728-.992l-2.333-4a2,2,0,0,1,0-2.015l2.333-4A2,2,0,0,1,4.649,0Z" transform="translate(12) rotate(90)" fill="#fff"/>
  </g>
</svg>
